{
    "asset" : {
        "generator" : "Khronos glTF Blender I/O v1.8.19",
        "version" : "2.0"
    },
    "scene" : 0,
    "scenes" : [
        {
            "name" : "Scene",
            "nodes" : [
                17
            ]
        }
    ],
    "nodes" : [
        {
            "mesh" : 0,
            "name" : "Box004_02 - Default_0"
        },
        {
            "children" : [
                0
            ],
            "name" : "Object_4",
            "translation" : [
                0,
                0,
                -14.06249713897705
            ]
        },
        {
            "children" : [
                1
            ],
            "name" : "Box004",
            "scale" : [
                1,
                0.985509991645813,
                0.48396000266075134
            ],
            "translation" : [
                0.22336232662200928,
                31.62282943725586,
                9.516475677490234
            ]
        },
        {
            "mesh" : 1,
            "name" : "Object041_03 - Default_0"
        },
        {
            "children" : [
                3
            ],
            "name" : "Object_7",
            "translation" : [
                62.596317291259766,
                5.8680739402771,
                77.21282196044922
            ]
        },
        {
            "children" : [
                4
            ],
            "name" : "Object041",
            "rotation" : [
                -0.009308177046477795,
                0.2786208689212799,
                -0.01657775044441223,
                0.9602130055427551
            ],
            "scale" : [
                0.3794029951095581,
                0.40556800365448,
                0.3793720006942749
            ],
            "translation" : [
                0.3085521459579468,
                13.70586109161377,
                9.531658172607422
            ]
        },
        {
            "mesh" : 2,
            "name" : "Object042_03 - Default_0"
        },
        {
            "children" : [
                6
            ],
            "name" : "Object_10",
            "translation" : [
                76.14442443847656,
                5.723692893981934,
                48.358863830566406
            ]
        },
        {
            "children" : [
                7
            ],
            "name" : "Object042",
            "rotation" : [
                0.9397777318954468,
                0.01592872478067875,
                0.3412570655345917,
                0.010379808023571968
            ],
            "scale" : [
                -0.3794029951095581,
                -0.40556800365448,
                -0.3793720006942749
            ],
            "translation" : [
                0.2571910619735718,
                14.417412757873535,
                7.1852521896362305
            ]
        },
        {
            "mesh" : 3,
            "name" : "Object043_01 - Default_0"
        },
        {
            "children" : [
                9
            ],
            "name" : "Object_15",
            "translation" : [
                0,
                0,
                -14.06249713897705
            ]
        },
        {
            "children" : [
                10
            ],
            "name" : "Object043",
            "scale" : [
                1,
                0.985509991645813,
                0.48396000266075134
            ],
            "translation" : [
                0.22336232662200928,
                31.62282943725586,
                9.516475677490234
            ]
        },
        {
            "mesh" : 4,
            "name" : "Object044_08 - Default_0"
        },
        {
            "children" : [
                12
            ],
            "name" : "Object_18",
            "translation" : [
                0,
                0,
                -14.06249713897705
            ]
        },
        {
            "children" : [
                13
            ],
            "name" : "Object044",
            "scale" : [
                1,
                0.985509991645813,
                0.48396000266075134
            ],
            "translation" : [
                0.22336232662200928,
                31.62282943725586,
                9.516475677490234
            ]
        },
        {
            "mesh" : 5,
            "name" : "Plane003_07 - Default_0"
        },
        {
            "children" : [
                15
            ],
            "name" : "Plane003",
            "rotation" : [
                -0.9150675535202026,
                0.3609071671962738,
                0.16475702822208405,
                0.07247408479452133
            ],
            "scale" : [
                0.38839998841285706,
                0.3938769996166229,
                0.3786899745464325
            ],
            "translation" : [
                -0.4701420068740845,
                14.968963623046875,
                2.5472412109375
            ]
        },
        {
            "children" : [
                2,
                5,
                8,
                11,
                14,
                16
            ],
            "name" : "Hollow Knight",
            "scale" : [
                0.5935171842575073,
                0.5935173034667969,
                0.5935173034667969
            ],
            "translation" : [
                -0.18017292022705078,
                -0.26262640953063965,
                -5.657264709472656
            ]
        }
    ],
    "materials" : [
        {
            "doubleSided" : true,
            "name" : "02_-_Default",
            "pbrMetallicRoughness" : {
                "baseColorFactor" : [
                    0.8345856070518494,
                    0.7495400309562683,
                    0.8947149515151978,
                    1
                ],
                "metallicFactor" : 0,
                "roughnessFactor" : 0.8929713368415833
            }
        },
        {
            "doubleSided" : true,
            "name" : "03_-_Default",
            "pbrMetallicRoughness" : {
                "baseColorFactor" : [
                    0.061308424919843674,
                    0.1104760617017746,
                    0.1653117686510086,
                    1
                ],
                "metallicFactor" : 0,
                "roughnessFactor" : 0.8929713368415833
            }
        },
        {
            "doubleSided" : true,
            "name" : "01_-_Default",
            "pbrMetallicRoughness" : {
                "baseColorFactor" : [
                    0.04777287319302559,
                    0.03619612380862236,
                    0.05393964797258377,
                    1
                ],
                "metallicFactor" : 0,
                "roughnessFactor" : 0.8929713368415833
            }
        },
        {
            "doubleSided" : true,
            "name" : "08_-_Default",
            "pbrMetallicRoughness" : {
                "baseColorFactor" : [
                    0.021253744140267372,
                    0.017199315130710602,
                    0.024261247366666794,
                    1
                ],
                "metallicFactor" : 0,
                "roughnessFactor" : 0.8929713368415833
            }
        },
        {
            "doubleSided" : true,
            "name" : "07_-_Default",
            "pbrMetallicRoughness" : {
                "baseColorFactor" : [
                    0.7092478275299072,
                    0.5269428491592407,
                    0.7017960548400879,
                    1
                ],
                "metallicFactor" : 0,
                "roughnessFactor" : 0.8929713368415833
            }
        }
    ],
    "meshes" : [
        {
            "name" : "Box004_02 - Default_0",
            "primitives" : [
                {
                    "attributes" : {
                        "POSITION" : 0,
                        "NORMAL" : 1,
                        "TEXCOORD_0" : 2
                    },
                    "indices" : 3,
                    "material" : 0
                }
            ]
        },
        {
            "name" : "Object041_03 - Default_0",
            "primitives" : [
                {
                    "attributes" : {
                        "POSITION" : 4,
                        "NORMAL" : 5,
                        "TEXCOORD_0" : 6
                    },
                    "indices" : 7,
                    "material" : 1
                }
            ]
        },
        {
            "name" : "Object042_03 - Default_0",
            "primitives" : [
                {
                    "attributes" : {
                        "POSITION" : 8,
                        "NORMAL" : 9,
                        "TEXCOORD_0" : 10
                    },
                    "indices" : 11,
                    "material" : 1
                }
            ]
        },
        {
            "name" : "Object043_01 - Default_0",
            "primitives" : [
                {
                    "attributes" : {
                        "POSITION" : 12,
                        "NORMAL" : 13,
                        "TEXCOORD_0" : 14
                    },
                    "indices" : 15,
                    "material" : 2
                }
            ]
        },
        {
            "name" : "Object044_08 - Default_0",
            "primitives" : [
                {
                    "attributes" : {
                        "POSITION" : 16,
                        "NORMAL" : 17,
                        "TEXCOORD_0" : 18
                    },
                    "indices" : 19,
                    "material" : 3
                }
            ]
        },
        {
            "name" : "Plane003_07 - Default_0",
            "primitives" : [
                {
                    "attributes" : {
                        "POSITION" : 20,
                        "NORMAL" : 21,
                        "TEXCOORD_0" : 22
                    },
                    "indices" : 23,
                    "material" : 4
                }
            ]
        }
    ],
    "accessors" : [
        {
            "bufferView" : 0,
            "componentType" : 5126,
            "count" : 7097,
            "max" : [
                15.076763153076172,
                25.493070602416992,
                27.49425506591797
            ],
            "min" : [
                -15.076763153076172,
                -11.613374710083008,
                0.8949880599975586
            ],
            "type" : "VEC3"
        },
        {
            "bufferView" : 1,
            "componentType" : 5126,
            "count" : 7097,
            "type" : "VEC3"
        },
        {
            "bufferView" : 2,
            "componentType" : 5126,
            "count" : 7097,
            "type" : "VEC2"
        },
        {
            "bufferView" : 3,
            "componentType" : 5123,
            "count" : 39744,
            "type" : "SCALAR"
        },
        {
            "bufferView" : 4,
            "componentType" : 5126,
            "count" : 11340,
            "max" : [
                -37.335235595703125,
                15.982070922851562,
                -53.490272521972656
            ],
            "min" : [
                -82.4045639038086,
                -27.572729110717773,
                -99.81695556640625
            ],
            "type" : "VEC3"
        },
        {
            "bufferView" : 5,
            "componentType" : 5126,
            "count" : 11340,
            "type" : "VEC3"
        },
        {
            "bufferView" : 6,
            "componentType" : 5126,
            "count" : 11340,
            "type" : "VEC2"
        },
        {
            "bufferView" : 7,
            "componentType" : 5123,
            "count" : 67200,
            "type" : "SCALAR"
        },
        {
            "bufferView" : 8,
            "componentType" : 5126,
            "count" : 1620,
            "max" : [
                -53.70630645751953,
                14.616281509399414,
                -23.017364501953125
            ],
            "min" : [
                -92.2295913696289,
                -27.774202346801758,
                -44.07752227783203
            ],
            "type" : "VEC3"
        },
        {
            "bufferView" : 9,
            "componentType" : 5126,
            "count" : 1620,
            "type" : "VEC3"
        },
        {
            "bufferView" : 10,
            "componentType" : 5126,
            "count" : 1620,
            "type" : "VEC2"
        },
        {
            "bufferView" : 11,
            "componentType" : 5123,
            "count" : 9600,
            "type" : "SCALAR"
        },
        {
            "bufferView" : 12,
            "componentType" : 5126,
            "count" : 98,
            "max" : [
                8.567359924316406,
                0.22202694416046143,
                24.624916076660156
            ],
            "min" : [
                -8.567359924316406,
                -6.144121170043945,
                23.42801284790039
            ],
            "type" : "VEC3"
        },
        {
            "bufferView" : 13,
            "componentType" : 5126,
            "count" : 98,
            "type" : "VEC3"
        },
        {
            "bufferView" : 14,
            "componentType" : 5126,
            "count" : 98,
            "type" : "VEC2"
        },
        {
            "bufferView" : 15,
            "componentType" : 5123,
            "count" : 432,
            "type" : "SCALAR"
        },
        {
            "bufferView" : 16,
            "componentType" : 5126,
            "count" : 3345,
            "max" : [
                3.8579490184783936,
                -11.457230567932129,
                18.917213439941406
            ],
            "min" : [
                -3.91412353515625,
                -31.759653091430664,
                5.076014518737793
            ],
            "type" : "VEC3"
        },
        {
            "bufferView" : 17,
            "componentType" : 5126,
            "count" : 3345,
            "type" : "VEC3"
        },
        {
            "bufferView" : 18,
            "componentType" : 5126,
            "count" : 3345,
            "type" : "VEC2"
        },
        {
            "bufferView" : 19,
            "componentType" : 5123,
            "count" : 18240,
            "type" : "SCALAR"
        },
        {
            "bufferView" : 20,
            "componentType" : 5126,
            "count" : 44,
            "max" : [
                41.13577651977539,
                4.62934684753418,
                2.5399999618530273
            ],
            "min" : [
                -31.39947509765625,
                -4.62934684753418,
                0
            ],
            "type" : "VEC3"
        },
        {
            "bufferView" : 21,
            "componentType" : 5126,
            "count" : 44,
            "type" : "VEC3"
        },
        {
            "bufferView" : 22,
            "componentType" : 5126,
            "count" : 44,
            "type" : "VEC2"
        },
        {
            "bufferView" : 23,
            "componentType" : 5123,
            "count" : 132,
            "type" : "SCALAR"
        }
    ],
    "bufferViews" : [
        {
            "buffer" : 0,
            "byteLength" : 85164,
            "byteOffset" : 0
        },
        {
            "buffer" : 0,
            "byteLength" : 85164,
            "byteOffset" : 85164
        },
        {
            "buffer" : 0,
            "byteLength" : 56776,
            "byteOffset" : 170328
        },
        {
            "buffer" : 0,
            "byteLength" : 79488,
            "byteOffset" : 227104
        },
        {
            "buffer" : 0,
            "byteLength" : 136080,
            "byteOffset" : 306592
        },
        {
            "buffer" : 0,
            "byteLength" : 136080,
            "byteOffset" : 442672
        },
        {
            "buffer" : 0,
            "byteLength" : 90720,
            "byteOffset" : 578752
        },
        {
            "buffer" : 0,
            "byteLength" : 134400,
            "byteOffset" : 669472
        },
        {
            "buffer" : 0,
            "byteLength" : 19440,
            "byteOffset" : 803872
        },
        {
            "buffer" : 0,
            "byteLength" : 19440,
            "byteOffset" : 823312
        },
        {
            "buffer" : 0,
            "byteLength" : 12960,
            "byteOffset" : 842752
        },
        {
            "buffer" : 0,
            "byteLength" : 19200,
            "byteOffset" : 855712
        },
        {
            "buffer" : 0,
            "byteLength" : 1176,
            "byteOffset" : 874912
        },
        {
            "buffer" : 0,
            "byteLength" : 1176,
            "byteOffset" : 876088
        },
        {
            "buffer" : 0,
            "byteLength" : 784,
            "byteOffset" : 877264
        },
        {
            "buffer" : 0,
            "byteLength" : 864,
            "byteOffset" : 878048
        },
        {
            "buffer" : 0,
            "byteLength" : 40140,
            "byteOffset" : 878912
        },
        {
            "buffer" : 0,
            "byteLength" : 40140,
            "byteOffset" : 919052
        },
        {
            "buffer" : 0,
            "byteLength" : 26760,
            "byteOffset" : 959192
        },
        {
            "buffer" : 0,
            "byteLength" : 36480,
            "byteOffset" : 985952
        },
        {
            "buffer" : 0,
            "byteLength" : 528,
            "byteOffset" : 1022432
        },
        {
            "buffer" : 0,
            "byteLength" : 528,
            "byteOffset" : 1022960
        },
        {
            "buffer" : 0,
            "byteLength" : 352,
            "byteOffset" : 1023488
        },
        {
            "buffer" : 0,
            "byteLength" : 264,
            "byteOffset" : 1023840
        }
    ],
    "buffers" : [
        {
            "byteLength" : 1024104,
            "uri" : "data:application/octet-stream;base64,"
        }
    ]
}
